<?xml version="1.0" standalone="no"?>
<!DOCTYPE svg PUBLIC "-//W3C//DTD SVG 20010904//EN"
 "http://www.w3.org/TR/2001/REC-SVG-20010904/DTD/svg10.dtd">
<svg version="1.0" xmlns="http://www.w3.org/2000/svg"
 width="16.000000pt" height="16.000000pt" viewBox="0 0 16.000000 16.000000"
 preserveAspectRatio="xMidYMid meet">

<g transform="translate(0.000000,16.000000) scale(0.100000,-0.100000)"
fill="#000000" stroke="none">
<path d="M7 154 c-11 -11 -8 -74 3 -74 6 0 10 -7 10 -15 0 -8 5 -15 10 -15 15
0 12 16 -5 30 -25 20 -15 55 15 55 23 0 25 -4 27 -47 2 -39 -2 -50 -18 -59
-11 -6 -27 -8 -36 -5 -9 4 -13 1 -11 -6 3 -9 28 -13 79 -13 l74 0 3 31 c3 29
1 31 -22 27 -17 -4 -26 -12 -26 -24 0 -11 -7 -19 -15 -19 -17 0 -19 27 -6 64
7 17 7 26 -2 30 -21 8 16 27 46 23 17 -2 26 1 24 7 -4 12 -139 21 -150 10z"/>
<path d="M120 100 c0 -19 3 -21 12 -12 9 9 9 15 0 24 -9 9 -12 7 -12 -12z"/>
</g>
</svg>
